<?xml version="1.0" standalone="no"?>
<!DOCTYPE svg PUBLIC "-//W3C//DTD SVG 20010904//EN"
 "http://www.w3.org/TR/2001/REC-SVG-20010904/DTD/svg10.dtd">
<svg version="1.0" xmlns="http://www.w3.org/2000/svg"
 width="512.000000pt" height="512.000000pt" viewBox="0 0 512.000000 512.000000"
 preserveAspectRatio="xMidYMid meet">
<metadata>
Created by potrace 1.11, written by Peter Selinger 2001-2013
</metadata>
<g transform="translate(0.000000,512.000000) scale(0.100000,-0.100000)"
fill="#000000" stroke="none">
<path d="M2408 5115 c-2 -1 -28 -5 -58 -8 -140 -15 -386 -78 -498 -128 -131
-59 -244 -115 -311 -155 l-74 -45 -53 35 c-30 20 -56 36 -59 36 -3 0 -24 9
-48 19 -23 11 -60 25 -82 32 -39 12 -197 16 -245 6 -101 -21 -207 -66 -297
-128 -152 -104 -349 -357 -417 -537 -98 -258 -54 -463 142 -657 36 -36 69 -65
74 -65 18 0 6 -25 -35 -74 -100 -119 -209 -294 -205 -328 7 -43 27 -67 63 -74
l35 -6 -44 -82 c-193 -354 -309 -645 -291 -725 14 -59 62 -81 128 -59 15 6 30
8 33 6 2 -3 -5 -26 -16 -52 -47 -110 -122 -364 -136 -461 -16 -108 -15 -144 1
-179 10 -20 25 -37 34 -38 46 -5 61 -2 123 18 l67 23 3 -323 c3 -303 4 -324
22 -342 17 -17 37 -19 187 -22 l167 -3 -20 -77 c-11 -42 -22 -85 -24 -95 -2
-10 -6 -27 -9 -38 -10 -31 5 -78 28 -92 14 -7 81 -14 178 -17 l157 -5 -25 -70
c-25 -74 -24 -115 2 -142 43 -42 479 -162 690 -189 22 -3 83 -11 135 -19 52
-8 124 -17 160 -20 36 -3 81 -8 100 -10 266 -27 864 -28 1130 0 19 2 67 6 105
9 39 3 79 8 90 10 11 2 43 7 70 10 28 4 64 9 80 12 17 2 46 6 65 9 19 2 60 9
90 15 30 6 69 14 85 16 124 21 454 120 501 150 35 23 38 61 11 145 l-24 74
156 5 c86 3 163 9 173 13 9 5 21 21 28 37 10 24 7 48 -18 149 l-29 121 154 0
c167 0 205 9 217 52 3 13 6 161 6 330 l0 307 68 -23 c37 -12 76 -22 87 -21 11
1 28 2 37 3 44 5 57 121 28 247 -6 28 -13 57 -15 65 -18 80 -29 120 -59 211
-20 59 -45 128 -56 154 -11 26 -18 50 -16 53 3 2 18 0 33 -6 16 -5 40 -8 53
-7 14 1 31 3 37 4 25 2 45 60 38 109 -14 110 -108 332 -261 622 l-72 134 36
13 c71 24 78 76 23 159 -17 25 -31 48 -31 51 0 10 -92 136 -142 194 l-48 57
23 15 c41 27 135 127 173 184 148 223 106 507 -117 803 -134 179 -265 290
-406 349 -217 89 -401 74 -594 -50 l-47 -30 -66 40 c-239 147 -522 248 -801
287 -47 6 -371 14 -377 9z"/>
</g>
</svg>
